<?xml version="1.0" encoding="UTF-8" standalone="no"?>
<svg xmlns="http://www.w3.org/2000/svg" viewBox="0 0 768 836" width="64" height="64">
  <rect width="64" height="64" rx="8" fill="white"/>
  <g transform="scale(0.08)">
    <!-- JUST (texto em preto/azul escuro) -->
    <path d="M0 374C24.6667 321.333 73.3333 206.667 98 154C144.667 154 238 154 284.667 154C284.667 206.667 284.667 312 284.667 364.667C284.667 411.333 299.333 453.333 331.333 485.333C363.333 517.333 405.333 532 452 532C498.667 532 540.667 517.333 572.667 485.333C604.667 453.333 619.333 411.333 619.333 364.667C619.333 317.333 604.667 275.333 572.667 243.333C540.667 211.333 498.667 196.667 452 196.667C405.333 196.667 363.333 211.333 331.333 243.333C323.11 251.555 315.948 260.487 310 270" fill="#001526"/>
    
    <!-- GO (texto em azul claro) -->
    <path d="M618.003 836C553.003 836 498.67 817 455.003 779C411.336 740.333 383.836 690.333 372.503 629L468.503 582C474.503 615.333 489.67 643.333 514.003 666C538.336 688.667 570.003 700 609.003 700C646.336 700 676.17 687 698.503 661C720.836 635 732.003 603.333 732.003 566C732.003 528.667 720.836 497.667 698.503 473C676.17 448.333 646.336 436 609.003 436C564.336 436 529.67 448.667 505.003 474C494.336 485.333 486.503 499.333 481.503 516L385.503 463C395.503 435.667 410.503 411.333 430.503 390C475.836 341.333 536.003 317 611.003 317C668.336 317 716.67 335.333 756.003 372C795.336 408.667 815.003 455 815.003 511C815.003 571 797.17 619.667 761.503 657C725.836 794.333 678.67 836 618.003 836Z" fill="#00B2F3"/>
  </g>
</svg>
